<svg class="ldp-dust" width="200px"  height="200px"  xmlns="http://www.w3.org/2000/svg" xmlns:xlink="http://www.w3.org/1999/xlink" preserveAspectRatio="xMidYMid" style="background: transparent none repeat scroll 0% 0%;"><defs>
  <pattern id="ldp-d8d5a498f822c" x="0" y="0" width="200" height="200" patternUnits="userSpaceOnUse">
    <g>
<animateTransform attributeName="transform" type="translate" values="0 0;200 200" keyTimes="0;1" repeatCount="indefinite" dur="1.25s" begin="-1.525288224129985s"></animateTransform>
<g transform="translate(-137.58233477238394 -150.3634658443645)"><g transform="scale(0.7908575821653018)">
<path d="M1.8,8.9c0.6-1.3,1.2-2.6,1.8-4c0.4-0.8,0.8-1.7,1.3-2.4S6.2,1.2,7.1,1c0.4,0.8,1,1.5,1.1,2.4C8.3,4.1,8,4.9,7.6,5.6 S6.6,6.8,6,7.3C5.6,7.8,5.1,8.2,4.5,8.4C3.7,8.8,2.7,8.6,1.9,9L1.8,8.9z" fill="rgba(100%,100%,100%,0.389)" transform="translate(-5 -5)"></path>
</g></g></g><g>
<animateTransform attributeName="transform" type="translate" values="0 0;200 200" keyTimes="0;1" repeatCount="indefinite" dur="1.25s" begin="-1.525288224129985s"></animateTransform>
<g transform="translate(-137.58233477238394 49.63653415563549)"><g transform="scale(0.7908575821653018)">
<path d="M1.8,8.9c0.6-1.3,1.2-2.6,1.8-4c0.4-0.8,0.8-1.7,1.3-2.4S6.2,1.2,7.1,1c0.4,0.8,1,1.5,1.1,2.4C8.3,4.1,8,4.9,7.6,5.6 S6.6,6.8,6,7.3C5.6,7.8,5.1,8.2,4.5,8.4C3.7,8.8,2.7,8.6,1.9,9L1.8,8.9z" fill="rgba(100%,100%,100%,0.389)" transform="translate(-5 -5)"></path>
</g></g></g><g>
<animateTransform attributeName="transform" type="translate" values="0 0;200 200" keyTimes="0;1" repeatCount="indefinite" dur="1.25s" begin="-1.525288224129985s"></animateTransform>
<g transform="translate(-137.58233477238394 249.6365341556355)"><g transform="scale(0.7908575821653018)">
<path d="M1.8,8.9c0.6-1.3,1.2-2.6,1.8-4c0.4-0.8,0.8-1.7,1.3-2.4S6.2,1.2,7.1,1c0.4,0.8,1,1.5,1.1,2.4C8.3,4.1,8,4.9,7.6,5.6 S6.6,6.8,6,7.3C5.6,7.8,5.1,8.2,4.5,8.4C3.7,8.8,2.7,8.6,1.9,9L1.8,8.9z" fill="rgba(100%,100%,100%,0.389)" transform="translate(-5 -5)"></path>
</g></g></g><g>
<animateTransform attributeName="transform" type="translate" values="0 0;200 200" keyTimes="0;1" repeatCount="indefinite" dur="1.25s" begin="-1.525288224129985s"></animateTransform>
<g transform="translate(62.41766522761607 -150.3634658443645)"><g transform="scale(0.7908575821653018)">
<path d="M1.8,8.9c0.6-1.3,1.2-2.6,1.8-4c0.4-0.8,0.8-1.7,1.3-2.4S6.2,1.2,7.1,1c0.4,0.8,1,1.5,1.1,2.4C8.3,4.1,8,4.9,7.6,5.6 S6.6,6.8,6,7.3C5.6,7.8,5.1,8.2,4.5,8.4C3.7,8.8,2.7,8.6,1.9,9L1.8,8.9z" fill="rgba(100%,100%,100%,0.389)" transform="translate(-5 -5)"></path>
</g></g></g><g>
<animateTransform attributeName="transform" type="translate" values="0 0;200 200" keyTimes="0;1" repeatCount="indefinite" dur="1.25s" begin="-1.525288224129985s"></animateTransform>
<g transform="translate(62.41766522761607 49.63653415563549)"><g transform="scale(0.7908575821653018)">
<path d="M1.8,8.9c0.6-1.3,1.2-2.6,1.8-4c0.4-0.8,0.8-1.7,1.3-2.4S6.2,1.2,7.1,1c0.4,0.8,1,1.5,1.1,2.4C8.3,4.1,8,4.9,7.6,5.6 S6.6,6.8,6,7.3C5.6,7.8,5.1,8.2,4.5,8.4C3.7,8.8,2.7,8.6,1.9,9L1.8,8.9z" fill="rgba(100%,100%,100%,0.389)" transform="translate(-5 -5)"></path>
</g></g></g><g>
<animateTransform attributeName="transform" type="translate" values="0 0;200 200" keyTimes="0;1" repeatCount="indefinite" dur="1.25s" begin="-1.525288224129985s"></animateTransform>
<g transform="translate(62.41766522761607 249.6365341556355)"><g transform="scale(0.7908575821653018)">
<path d="M1.8,8.9c0.6-1.3,1.2-2.6,1.8-4c0.4-0.8,0.8-1.7,1.3-2.4S6.2,1.2,7.1,1c0.4,0.8,1,1.5,1.1,2.4C8.3,4.1,8,4.9,7.6,5.6 S6.6,6.8,6,7.3C5.6,7.8,5.1,8.2,4.5,8.4C3.7,8.8,2.7,8.6,1.9,9L1.8,8.9z" fill="rgba(100%,100%,100%,0.389)" transform="translate(-5 -5)"></path>
</g></g></g><g>
<animateTransform attributeName="transform" type="translate" values="0 0;200 200" keyTimes="0;1" repeatCount="indefinite" dur="2.5s" begin="-0.038213239897520374s"></animateTransform>
<g transform="translate(-130.81383525366488 -160.7644502869189)"><g transform="scale(0.28955384329666917)">
<path d="M1.8,8.9c0.6-1.3,1.2-2.6,1.8-4c0.4-0.8,0.8-1.7,1.3-2.4S6.2,1.2,7.1,1c0.4,0.8,1,1.5,1.1,2.4C8.3,4.1,8,4.9,7.6,5.6 S6.6,6.8,6,7.3C5.6,7.8,5.1,8.2,4.5,8.4C3.7,8.8,2.7,8.6,1.9,9L1.8,8.9z" fill="#eee" transform="translate(-5 -5)"></path>
</g></g></g><g>
<animateTransform attributeName="transform" type="translate" values="0 0;200 200" keyTimes="0;1" repeatCount="indefinite" dur="2.5s" begin="-0.038213239897520374s"></animateTransform>
<g transform="translate(-130.81383525366488 39.2355497130811)"><g transform="scale(0.28955384329666917)">
<path d="M1.8,8.9c0.6-1.3,1.2-2.6,1.8-4c0.4-0.8,0.8-1.7,1.3-2.4S6.2,1.2,7.1,1c0.4,0.8,1,1.5,1.1,2.4C8.3,4.1,8,4.9,7.6,5.6 S6.6,6.8,6,7.3C5.6,7.8,5.1,8.2,4.5,8.4C3.7,8.8,2.7,8.6,1.9,9L1.8,8.9z" fill="#eee" transform="translate(-5 -5)"></path>
</g></g></g><g>
<animateTransform attributeName="transform" type="translate" values="0 0;200 200" keyTimes="0;1" repeatCount="indefinite" dur="2.5s" begin="-0.038213239897520374s"></animateTransform>
<g transform="translate(-130.81383525366488 239.2355497130811)"><g transform="scale(0.28955384329666917)">
<path d="M1.8,8.9c0.6-1.3,1.2-2.6,1.8-4c0.4-0.8,0.8-1.7,1.3-2.4S6.2,1.2,7.1,1c0.4,0.8,1,1.5,1.1,2.4C8.3,4.1,8,4.9,7.6,5.6 S6.6,6.8,6,7.3C5.6,7.8,5.1,8.2,4.5,8.4C3.7,8.8,2.7,8.6,1.9,9L1.8,8.9z" fill="#eee" transform="translate(-5 -5)"></path>
</g></g></g><g>
<animateTransform attributeName="transform" type="translate" values="0 0;200 200" keyTimes="0;1" repeatCount="indefinite" dur="2.5s" begin="-0.038213239897520374s"></animateTransform>
<g transform="translate(69.18616474633511 -160.7644502869189)"><g transform="scale(0.28955384329666917)">
<path d="M1.8,8.9c0.6-1.3,1.2-2.6,1.8-4c0.4-0.8,0.8-1.7,1.3-2.4S6.2,1.2,7.1,1c0.4,0.8,1,1.5,1.1,2.4C8.3,4.1,8,4.9,7.6,5.6 S6.6,6.8,6,7.3C5.6,7.8,5.1,8.2,4.5,8.4C3.7,8.8,2.7,8.6,1.9,9L1.8,8.9z" fill="#eee" transform="translate(-5 -5)"></path>
</g></g></g><g>
<animateTransform attributeName="transform" type="translate" values="0 0;200 200" keyTimes="0;1" repeatCount="indefinite" dur="2.5s" begin="-0.038213239897520374s"></animateTransform>
<g transform="translate(69.18616474633511 39.2355497130811)"><g transform="scale(0.28955384329666917)">
<path d="M1.8,8.9c0.6-1.3,1.2-2.6,1.8-4c0.4-0.8,0.8-1.7,1.3-2.4S6.2,1.2,7.1,1c0.4,0.8,1,1.5,1.1,2.4C8.3,4.1,8,4.9,7.6,5.6 S6.6,6.8,6,7.3C5.6,7.8,5.1,8.2,4.5,8.4C3.7,8.8,2.7,8.6,1.9,9L1.8,8.9z" fill="#eee" transform="translate(-5 -5)"></path>
</g></g></g><g>
<animateTransform attributeName="transform" type="translate" values="0 0;200 200" keyTimes="0;1" repeatCount="indefinite" dur="2.5s" begin="-0.038213239897520374s"></animateTransform>
<g transform="translate(69.18616474633511 239.2355497130811)"><g transform="scale(0.28955384329666917)">
<path d="M1.8,8.9c0.6-1.3,1.2-2.6,1.8-4c0.4-0.8,0.8-1.7,1.3-2.4S6.2,1.2,7.1,1c0.4,0.8,1,1.5,1.1,2.4C8.3,4.1,8,4.9,7.6,5.6 S6.6,6.8,6,7.3C5.6,7.8,5.1,8.2,4.5,8.4C3.7,8.8,2.7,8.6,1.9,9L1.8,8.9z" fill="#eee" transform="translate(-5 -5)"></path>
</g></g></g><g>
<animateTransform attributeName="transform" type="translate" values="0 0;200 200" keyTimes="0;1" repeatCount="indefinite" dur="2.5s" begin="-2.3139099712797204s"></animateTransform>
<g transform="translate(-104.5194756025047 -197.83488509456404)"><g transform="scale(0.15903583865518328)">
<path d="M1.8,8.9c0.6-1.3,1.2-2.6,1.8-4c0.4-0.8,0.8-1.7,1.3-2.4S6.2,1.2,7.1,1c0.4,0.8,1,1.5,1.1,2.4C8.3,4.1,8,4.9,7.6,5.6 S6.6,6.8,6,7.3C5.6,7.8,5.1,8.2,4.5,8.4C3.7,8.8,2.7,8.6,1.9,9L1.8,8.9z" fill="rgba(100%,100%,100%,0.389)" transform="translate(-5 -5)"></path>
</g></g></g><g>
<animateTransform attributeName="transform" type="translate" values="0 0;200 200" keyTimes="0;1" repeatCount="indefinite" dur="2.5s" begin="-2.3139099712797204s"></animateTransform>
<g transform="translate(-104.5194756025047 2.1651149054359493)"><g transform="scale(0.15903583865518328)">
<path d="M1.8,8.9c0.6-1.3,1.2-2.6,1.8-4c0.4-0.8,0.8-1.7,1.3-2.4S6.2,1.2,7.1,1c0.4,0.8,1,1.5,1.1,2.4C8.3,4.1,8,4.9,7.6,5.6 S6.6,6.8,6,7.3C5.6,7.8,5.1,8.2,4.5,8.4C3.7,8.8,2.7,8.6,1.9,9L1.8,8.9z" fill="rgba(100%,100%,100%,0.389)" transform="translate(-5 -5)"></path>
</g></g></g><g>
<animateTransform attributeName="transform" type="translate" values="0 0;200 200" keyTimes="0;1" repeatCount="indefinite" dur="2.5s" begin="-2.3139099712797204s"></animateTransform>
<g transform="translate(-104.5194756025047 202.16511490543596)"><g transform="scale(0.15903583865518328)">
<path d="M1.8,8.9c0.6-1.3,1.2-2.6,1.8-4c0.4-0.8,0.8-1.7,1.3-2.4S6.2,1.2,7.1,1c0.4,0.8,1,1.5,1.1,2.4C8.3,4.1,8,4.9,7.6,5.6 S6.6,6.8,6,7.3C5.6,7.8,5.1,8.2,4.5,8.4C3.7,8.8,2.7,8.6,1.9,9L1.8,8.9z" fill="rgba(100%,100%,100%,0.389)" transform="translate(-5 -5)"></path>
</g></g></g><g>
<animateTransform attributeName="transform" type="translate" values="0 0;200 200" keyTimes="0;1" repeatCount="indefinite" dur="2.5s" begin="-2.3139099712797204s"></animateTransform>
<g transform="translate(95.4805243974953 -197.83488509456404)"><g transform="scale(0.15903583865518328)">
<path d="M1.8,8.9c0.6-1.3,1.2-2.6,1.8-4c0.4-0.8,0.8-1.7,1.3-2.4S6.2,1.2,7.1,1c0.4,0.8,1,1.5,1.1,2.4C8.3,4.1,8,4.9,7.6,5.6 S6.6,6.8,6,7.3C5.6,7.8,5.1,8.2,4.5,8.4C3.7,8.8,2.7,8.6,1.9,9L1.8,8.9z" fill="rgba(100%,100%,100%,0.389)" transform="translate(-5 -5)"></path>
</g></g></g><g>
<animateTransform attributeName="transform" type="translate" values="0 0;200 200" keyTimes="0;1" repeatCount="indefinite" dur="2.5s" begin="-2.3139099712797204s"></animateTransform>
<g transform="translate(95.4805243974953 2.1651149054359493)"><g transform="scale(0.15903583865518328)">
<path d="M1.8,8.9c0.6-1.3,1.2-2.6,1.8-4c0.4-0.8,0.8-1.7,1.3-2.4S6.2,1.2,7.1,1c0.4,0.8,1,1.5,1.1,2.4C8.3,4.1,8,4.9,7.6,5.6 S6.6,6.8,6,7.3C5.6,7.8,5.1,8.2,4.5,8.4C3.7,8.8,2.7,8.6,1.9,9L1.8,8.9z" fill="rgba(100%,100%,100%,0.389)" transform="translate(-5 -5)"></path>
</g></g></g><g>
<animateTransform attributeName="transform" type="translate" values="0 0;200 200" keyTimes="0;1" repeatCount="indefinite" dur="2.5s" begin="-2.3139099712797204s"></animateTransform>
<g transform="translate(95.4805243974953 202.16511490543596)"><g transform="scale(0.15903583865518328)">
<path d="M1.8,8.9c0.6-1.3,1.2-2.6,1.8-4c0.4-0.8,0.8-1.7,1.3-2.4S6.2,1.2,7.1,1c0.4,0.8,1,1.5,1.1,2.4C8.3,4.1,8,4.9,7.6,5.6 S6.6,6.8,6,7.3C5.6,7.8,5.1,8.2,4.5,8.4C3.7,8.8,2.7,8.6,1.9,9L1.8,8.9z" fill="rgba(100%,100%,100%,0.389)" transform="translate(-5 -5)"></path>
</g></g></g><g>
<animateTransform attributeName="transform" type="translate" values="0 0;200 200" keyTimes="0;1" repeatCount="indefinite" dur="0.625s" begin="-1.566098130948434s"></animateTransform>
<g transform="translate(-52.68539476154953 -14.029740408486504)"><g transform="scale(0.0846442898626389)">
<path d="M5.3,1.8C4.2,1.2,2.6,1.7,1.8,2.6s-1,2.4-0.7,3.7c0.1,0.4,0.3,0.8,0.5,1.1C2,7.8,2.4,8,2.9,8.2c2.1,0.7,4.6-0.1,5.9-2 C8.9,6,9,5.8,9,5.6C9,5.4,8.9,5.2,8.8,5c-0.3-0.6-0.5-1.2-1-1.7C7.2,2.6,6.3,2.1,5.3,1.8z" fill="rgba(100%,100%,100%,0.389)" transform="translate(-5 -5)"></path>
</g></g></g><g>
<animateTransform attributeName="transform" type="translate" values="0 0;200 200" keyTimes="0;1" repeatCount="indefinite" dur="0.625s" begin="-1.566098130948434s"></animateTransform>
<g transform="translate(-52.68539476154953 185.9702595915135)"><g transform="scale(0.0846442898626389)">
<path d="M5.3,1.8C4.2,1.2,2.6,1.7,1.8,2.6s-1,2.4-0.7,3.7c0.1,0.4,0.3,0.8,0.5,1.1C2,7.8,2.4,8,2.9,8.2c2.1,0.7,4.6-0.1,5.9-2 C8.9,6,9,5.8,9,5.6C9,5.4,8.9,5.2,8.8,5c-0.3-0.6-0.5-1.2-1-1.7C7.2,2.6,6.3,2.1,5.3,1.8z" fill="rgba(100%,100%,100%,0.389)" transform="translate(-5 -5)"></path>
</g></g></g><g>
<animateTransform attributeName="transform" type="translate" values="0 0;200 200" keyTimes="0;1" repeatCount="indefinite" dur="0.625s" begin="-1.566098130948434s"></animateTransform>
<g transform="translate(-52.68539476154953 385.97025959151347)"><g transform="scale(0.0846442898626389)">
<path d="M5.3,1.8C4.2,1.2,2.6,1.7,1.8,2.6s-1,2.4-0.7,3.7c0.1,0.4,0.3,0.8,0.5,1.1C2,7.8,2.4,8,2.9,8.2c2.1,0.7,4.6-0.1,5.9-2 C8.9,6,9,5.8,9,5.6C9,5.4,8.9,5.2,8.8,5c-0.3-0.6-0.5-1.2-1-1.7C7.2,2.6,6.3,2.1,5.3,1.8z" fill="rgba(100%,100%,100%,0.389)" transform="translate(-5 -5)"></path>
</g></g></g><g>
<animateTransform attributeName="transform" type="translate" values="0 0;200 200" keyTimes="0;1" repeatCount="indefinite" dur="0.625s" begin="-1.566098130948434s"></animateTransform>
<g transform="translate(147.31460523845047 -14.029740408486504)"><g transform="scale(0.0846442898626389)">
<path d="M5.3,1.8C4.2,1.2,2.6,1.7,1.8,2.6s-1,2.4-0.7,3.7c0.1,0.4,0.3,0.8,0.5,1.1C2,7.8,2.4,8,2.9,8.2c2.1,0.7,4.6-0.1,5.9-2 C8.9,6,9,5.8,9,5.6C9,5.4,8.9,5.2,8.8,5c-0.3-0.6-0.5-1.2-1-1.7C7.2,2.6,6.3,2.1,5.3,1.8z" fill="rgba(100%,100%,100%,0.389)" transform="translate(-5 -5)"></path>
</g></g></g><g>
<animateTransform attributeName="transform" type="translate" values="0 0;200 200" keyTimes="0;1" repeatCount="indefinite" dur="0.625s" begin="-1.566098130948434s"></animateTransform>
<g transform="translate(147.31460523845047 185.9702595915135)"><g transform="scale(0.0846442898626389)">
<path d="M5.3,1.8C4.2,1.2,2.6,1.7,1.8,2.6s-1,2.4-0.7,3.7c0.1,0.4,0.3,0.8,0.5,1.1C2,7.8,2.4,8,2.9,8.2c2.1,0.7,4.6-0.1,5.9-2 C8.9,6,9,5.8,9,5.6C9,5.4,8.9,5.2,8.8,5c-0.3-0.6-0.5-1.2-1-1.7C7.2,2.6,6.3,2.1,5.3,1.8z" fill="rgba(100%,100%,100%,0.389)" transform="translate(-5 -5)"></path>
</g></g></g><g>
<animateTransform attributeName="transform" type="translate" values="0 0;200 200" keyTimes="0;1" repeatCount="indefinite" dur="0.625s" begin="-1.566098130948434s"></animateTransform>
<g transform="translate(147.31460523845047 385.97025959151347)"><g transform="scale(0.0846442898626389)">
<path d="M5.3,1.8C4.2,1.2,2.6,1.7,1.8,2.6s-1,2.4-0.7,3.7c0.1,0.4,0.3,0.8,0.5,1.1C2,7.8,2.4,8,2.9,8.2c2.1,0.7,4.6-0.1,5.9-2 C8.9,6,9,5.8,9,5.6C9,5.4,8.9,5.2,8.8,5c-0.3-0.6-0.5-1.2-1-1.7C7.2,2.6,6.3,2.1,5.3,1.8z" fill="rgba(100%,100%,100%,0.389)" transform="translate(-5 -5)"></path>
</g></g></g><g>
<animateTransform attributeName="transform" type="translate" values="0 0;200 200" keyTimes="0;1" repeatCount="indefinite" dur="1.25s" begin="-1.1383985670890386s"></animateTransform>
<g transform="translate(-136.83148969800476 -120.0876301699874)"><g transform="scale(0.4622304724249377)">
<path d="M3.1,3.7C3.9,2.9,5,2.5,5.8,1.8c0.3-0.3,0.6-0.6,1-0.7c0.6-0.2,1.2,0.1,1.7,0C8,3.3,8.2,5.6,8.2,7.8c0,0,0,0.1,0,0.1 c0,0.1-0.1,0.1-0.2,0.1c-1.3,0.5-2.7,0.3-4,0.8C3.9,8.9,3.8,9,3.6,9C3.4,9,3.3,8.9,3.2,8.7C2.9,8.4,1.7,7.1,1.4,7.3 C1.6,7,1.7,6.6,1.8,6.2L3.1,3.7z" fill="rgba(100%,100%,100%,0.389)" transform="translate(-5 -5)"></path>
</g></g></g><g>
<animateTransform attributeName="transform" type="translate" values="0 0;200 200" keyTimes="0;1" repeatCount="indefinite" dur="1.25s" begin="-1.1383985670890386s"></animateTransform>
<g transform="translate(-136.83148969800476 79.9123698300126)"><g transform="scale(0.4622304724249377)">
<path d="M3.1,3.7C3.9,2.9,5,2.5,5.8,1.8c0.3-0.3,0.6-0.6,1-0.7c0.6-0.2,1.2,0.1,1.7,0C8,3.3,8.2,5.6,8.2,7.8c0,0,0,0.1,0,0.1 c0,0.1-0.1,0.1-0.2,0.1c-1.3,0.5-2.7,0.3-4,0.8C3.9,8.9,3.8,9,3.6,9C3.4,9,3.3,8.9,3.2,8.7C2.9,8.4,1.7,7.1,1.4,7.3 C1.6,7,1.7,6.6,1.8,6.2L3.1,3.7z" fill="rgba(100%,100%,100%,0.389)" transform="translate(-5 -5)"></path>
</g></g></g><g>
<animateTransform attributeName="transform" type="translate" values="0 0;200 200" keyTimes="0;1" repeatCount="indefinite" dur="1.25s" begin="-1.1383985670890386s"></animateTransform>
<g transform="translate(-136.83148969800476 279.9123698300126)"><g transform="scale(0.4622304724249377)">
<path d="M3.1,3.7C3.9,2.9,5,2.5,5.8,1.8c0.3-0.3,0.6-0.6,1-0.7c0.6-0.2,1.2,0.1,1.7,0C8,3.3,8.2,5.6,8.2,7.8c0,0,0,0.1,0,0.1 c0,0.1-0.1,0.1-0.2,0.1c-1.3,0.5-2.7,0.3-4,0.8C3.9,8.9,3.8,9,3.6,9C3.4,9,3.3,8.9,3.2,8.7C2.9,8.4,1.7,7.1,1.4,7.3 C1.6,7,1.7,6.6,1.8,6.2L3.1,3.7z" fill="rgba(100%,100%,100%,0.389)" transform="translate(-5 -5)"></path>
</g></g></g><g>
<animateTransform attributeName="transform" type="translate" values="0 0;200 200" keyTimes="0;1" repeatCount="indefinite" dur="1.25s" begin="-1.1383985670890386s"></animateTransform>
<g transform="translate(63.16851030199525 -120.0876301699874)"><g transform="scale(0.4622304724249377)">
<path d="M3.1,3.7C3.9,2.9,5,2.5,5.8,1.8c0.3-0.3,0.6-0.6,1-0.7c0.6-0.2,1.2,0.1,1.7,0C8,3.3,8.2,5.6,8.2,7.8c0,0,0,0.1,0,0.1 c0,0.1-0.1,0.1-0.2,0.1c-1.3,0.5-2.7,0.3-4,0.8C3.9,8.9,3.8,9,3.6,9C3.4,9,3.3,8.9,3.2,8.7C2.9,8.4,1.7,7.1,1.4,7.3 C1.6,7,1.7,6.6,1.8,6.2L3.1,3.7z" fill="rgba(100%,100%,100%,0.389)" transform="translate(-5 -5)"></path>
</g></g></g><g>
<animateTransform attributeName="transform" type="translate" values="0 0;200 200" keyTimes="0;1" repeatCount="indefinite" dur="1.25s" begin="-1.1383985670890386s"></animateTransform>
<g transform="translate(63.16851030199525 79.9123698300126)"><g transform="scale(0.4622304724249377)">
<path d="M3.1,3.7C3.9,2.9,5,2.5,5.8,1.8c0.3-0.3,0.6-0.6,1-0.7c0.6-0.2,1.2,0.1,1.7,0C8,3.3,8.2,5.6,8.2,7.8c0,0,0,0.1,0,0.1 c0,0.1-0.1,0.1-0.2,0.1c-1.3,0.5-2.7,0.3-4,0.8C3.9,8.9,3.8,9,3.6,9C3.4,9,3.3,8.9,3.2,8.7C2.9,8.4,1.7,7.1,1.4,7.3 C1.6,7,1.7,6.6,1.8,6.2L3.1,3.7z" fill="rgba(100%,100%,100%,0.389)" transform="translate(-5 -5)"></path>
</g></g></g><g>
<animateTransform attributeName="transform" type="translate" values="0 0;200 200" keyTimes="0;1" repeatCount="indefinite" dur="1.25s" begin="-1.1383985670890386s"></animateTransform>
<g transform="translate(63.16851030199525 279.9123698300126)"><g transform="scale(0.4622304724249377)">
<path d="M3.1,3.7C3.9,2.9,5,2.5,5.8,1.8c0.3-0.3,0.6-0.6,1-0.7c0.6-0.2,1.2,0.1,1.7,0C8,3.3,8.2,5.6,8.2,7.8c0,0,0,0.1,0,0.1 c0,0.1-0.1,0.1-0.2,0.1c-1.3,0.5-2.7,0.3-4,0.8C3.9,8.9,3.8,9,3.6,9C3.4,9,3.3,8.9,3.2,8.7C2.9,8.4,1.7,7.1,1.4,7.3 C1.6,7,1.7,6.6,1.8,6.2L3.1,3.7z" fill="rgba(100%,100%,100%,0.389)" transform="translate(-5 -5)"></path>
</g></g></g><g>
<animateTransform attributeName="transform" type="translate" values="0 0;200 200" keyTimes="0;1" repeatCount="indefinite" dur="2.5s" begin="-1.4356646895613236s"></animateTransform>
<g transform="translate(-52.09313311380171 -0.02498921392046327)"><g transform="scale(0.7684749052170438)">
<path d="M1.8,8.9c0.6-1.3,1.2-2.6,1.8-4c0.4-0.8,0.8-1.7,1.3-2.4S6.2,1.2,7.1,1c0.4,0.8,1,1.5,1.1,2.4C8.3,4.1,8,4.9,7.6,5.6 S6.6,6.8,6,7.3C5.6,7.8,5.1,8.2,4.5,8.4C3.7,8.8,2.7,8.6,1.9,9L1.8,8.9z" fill="rgba(100%,100%,100%,0.389)" transform="translate(-5 -5)"></path>
</g></g></g><g>
<animateTransform attributeName="transform" type="translate" values="0 0;200 200" keyTimes="0;1" repeatCount="indefinite" dur="2.5s" begin="-1.4356646895613236s"></animateTransform>
<g transform="translate(-52.09313311380171 199.97501078607954)"><g transform="scale(0.7684749052170438)">
<path d="M1.8,8.9c0.6-1.3,1.2-2.6,1.8-4c0.4-0.8,0.8-1.7,1.3-2.4S6.2,1.2,7.1,1c0.4,0.8,1,1.5,1.1,2.4C8.3,4.1,8,4.9,7.6,5.6 S6.6,6.8,6,7.3C5.6,7.8,5.1,8.2,4.5,8.4C3.7,8.8,2.7,8.6,1.9,9L1.8,8.9z" fill="rgba(100%,100%,100%,0.389)" transform="translate(-5 -5)"></path>
</g></g></g><g>
<animateTransform attributeName="transform" type="translate" values="0 0;200 200" keyTimes="0;1" repeatCount="indefinite" dur="2.5s" begin="-1.4356646895613236s"></animateTransform>
<g transform="translate(-52.09313311380171 399.97501078607957)"><g transform="scale(0.7684749052170438)">
<path d="M1.8,8.9c0.6-1.3,1.2-2.6,1.8-4c0.4-0.8,0.8-1.7,1.3-2.4S6.2,1.2,7.1,1c0.4,0.8,1,1.5,1.1,2.4C8.3,4.1,8,4.9,7.6,5.6 S6.6,6.8,6,7.3C5.6,7.8,5.1,8.2,4.5,8.4C3.7,8.8,2.7,8.6,1.9,9L1.8,8.9z" fill="rgba(100%,100%,100%,0.389)" transform="translate(-5 -5)"></path>
</g></g></g><g>
<animateTransform attributeName="transform" type="translate" values="0 0;200 200" keyTimes="0;1" repeatCount="indefinite" dur="2.5s" begin="-1.4356646895613236s"></animateTransform>
<g transform="translate(147.9068668861983 -0.02498921392046327)"><g transform="scale(0.7684749052170438)">
<path d="M1.8,8.9c0.6-1.3,1.2-2.6,1.8-4c0.4-0.8,0.8-1.7,1.3-2.4S6.2,1.2,7.1,1c0.4,0.8,1,1.5,1.1,2.4C8.3,4.1,8,4.9,7.6,5.6 S6.6,6.8,6,7.3C5.6,7.8,5.1,8.2,4.5,8.4C3.7,8.8,2.7,8.6,1.9,9L1.8,8.9z" fill="rgba(100%,100%,100%,0.389)" transform="translate(-5 -5)"></path>
</g></g></g><g>
<animateTransform attributeName="transform" type="translate" values="0 0;200 200" keyTimes="0;1" repeatCount="indefinite" dur="2.5s" begin="-1.4356646895613236s"></animateTransform>
<g transform="translate(147.9068668861983 199.97501078607954)"><g transform="scale(0.7684749052170438)">
<path d="M1.8,8.9c0.6-1.3,1.2-2.6,1.8-4c0.4-0.8,0.8-1.7,1.3-2.4S6.2,1.2,7.1,1c0.4,0.8,1,1.5,1.1,2.4C8.3,4.1,8,4.9,7.6,5.6 S6.6,6.8,6,7.3C5.6,7.8,5.1,8.2,4.5,8.4C3.7,8.8,2.7,8.6,1.9,9L1.8,8.9z" fill="rgba(100%,100%,100%,0.389)" transform="translate(-5 -5)"></path>
</g></g></g><g>
<animateTransform attributeName="transform" type="translate" values="0 0;200 200" keyTimes="0;1" repeatCount="indefinite" dur="2.5s" begin="-1.4356646895613236s"></animateTransform>
<g transform="translate(147.9068668861983 399.97501078607957)"><g transform="scale(0.7684749052170438)">
<path d="M1.8,8.9c0.6-1.3,1.2-2.6,1.8-4c0.4-0.8,0.8-1.7,1.3-2.4S6.2,1.2,7.1,1c0.4,0.8,1,1.5,1.1,2.4C8.3,4.1,8,4.9,7.6,5.6 S6.6,6.8,6,7.3C5.6,7.8,5.1,8.2,4.5,8.4C3.7,8.8,2.7,8.6,1.9,9L1.8,8.9z" fill="rgba(100%,100%,100%,0.389)" transform="translate(-5 -5)"></path>
</g></g></g><g>
<animateTransform attributeName="transform" type="translate" values="0 0;200 200" keyTimes="0;1" repeatCount="indefinite" dur="1.25s" begin="-0.7553525542791917s"></animateTransform>
<g transform="translate(-147.17236536414197 -3.6489849441134936)"><g transform="scale(0.41099339856707745)">
<path d="M1,4.7C1,4,1.2,3.4,1.4,2.8C1.6,2.5,1.7,2.1,2,1.9c0.3-0.2,0.6-0.4,0.9-0.5C4.3,0.9,5.8,1,7.3,1.3c0.6,0.2,1.3,0.5,1.6,1.1 C9.1,2.9,9,3.5,8.9,4C8.7,5,8.6,6,8.6,7c0,0.1,0,0.2,0,0.3C8.5,7.4,8.3,7.5,8.2,7.6C7.6,7.8,7.1,8.1,6.5,8.3 C5.9,8.6,5.3,8.9,4.7,8.9c-0.4,0-0.8,0-1.2-0.1C2.7,8.8,1,8.7,1,8.7L1,6L1,4.7z" fill="#eee" transform="translate(-5 -5)"></path>
</g></g></g><g>
<animateTransform attributeName="transform" type="translate" values="0 0;200 200" keyTimes="0;1" repeatCount="indefinite" dur="1.25s" begin="-0.7553525542791917s"></animateTransform>
<g transform="translate(-147.17236536414197 196.3510150558865)"><g transform="scale(0.41099339856707745)">
<path d="M1,4.7C1,4,1.2,3.4,1.4,2.8C1.6,2.5,1.7,2.1,2,1.9c0.3-0.2,0.6-0.4,0.9-0.5C4.3,0.9,5.8,1,7.3,1.3c0.6,0.2,1.3,0.5,1.6,1.1 C9.1,2.9,9,3.5,8.9,4C8.7,5,8.6,6,8.6,7c0,0.1,0,0.2,0,0.3C8.5,7.4,8.3,7.5,8.2,7.6C7.6,7.8,7.1,8.1,6.5,8.3 C5.9,8.6,5.3,8.9,4.7,8.9c-0.4,0-0.8,0-1.2-0.1C2.7,8.8,1,8.7,1,8.7L1,6L1,4.7z" fill="#eee" transform="translate(-5 -5)"></path>
</g></g></g><g>
<animateTransform attributeName="transform" type="translate" values="0 0;200 200" keyTimes="0;1" repeatCount="indefinite" dur="1.25s" begin="-0.7553525542791917s"></animateTransform>
<g transform="translate(-147.17236536414197 396.3510150558865)"><g transform="scale(0.41099339856707745)">
<path d="M1,4.7C1,4,1.2,3.4,1.4,2.8C1.6,2.5,1.7,2.1,2,1.9c0.3-0.2,0.6-0.4,0.9-0.5C4.3,0.9,5.8,1,7.3,1.3c0.6,0.2,1.3,0.5,1.6,1.1 C9.1,2.9,9,3.5,8.9,4C8.7,5,8.6,6,8.6,7c0,0.1,0,0.2,0,0.3C8.5,7.4,8.3,7.5,8.2,7.6C7.6,7.8,7.1,8.1,6.5,8.3 C5.9,8.6,5.3,8.9,4.7,8.9c-0.4,0-0.8,0-1.2-0.1C2.7,8.8,1,8.7,1,8.7L1,6L1,4.7z" fill="#eee" transform="translate(-5 -5)"></path>
</g></g></g><g>
<animateTransform attributeName="transform" type="translate" values="0 0;200 200" keyTimes="0;1" repeatCount="indefinite" dur="1.25s" begin="-0.7553525542791917s"></animateTransform>
<g transform="translate(52.82763463585805 -3.6489849441134936)"><g transform="scale(0.41099339856707745)">
<path d="M1,4.7C1,4,1.2,3.4,1.4,2.8C1.6,2.5,1.7,2.1,2,1.9c0.3-0.2,0.6-0.4,0.9-0.5C4.3,0.9,5.8,1,7.3,1.3c0.6,0.2,1.3,0.5,1.6,1.1 C9.1,2.9,9,3.5,8.9,4C8.7,5,8.6,6,8.6,7c0,0.1,0,0.2,0,0.3C8.5,7.4,8.3,7.5,8.2,7.6C7.6,7.8,7.1,8.1,6.5,8.3 C5.9,8.6,5.3,8.9,4.7,8.9c-0.4,0-0.8,0-1.2-0.1C2.7,8.8,1,8.7,1,8.7L1,6L1,4.7z" fill="#eee" transform="translate(-5 -5)"></path>
</g></g></g><g>
<animateTransform attributeName="transform" type="translate" values="0 0;200 200" keyTimes="0;1" repeatCount="indefinite" dur="1.25s" begin="-0.7553525542791917s"></animateTransform>
<g transform="translate(52.82763463585805 196.3510150558865)"><g transform="scale(0.41099339856707745)">
<path d="M1,4.7C1,4,1.2,3.4,1.4,2.8C1.6,2.5,1.7,2.1,2,1.9c0.3-0.2,0.6-0.4,0.9-0.5C4.3,0.9,5.8,1,7.3,1.3c0.6,0.2,1.3,0.5,1.6,1.1 C9.1,2.9,9,3.5,8.9,4C8.7,5,8.6,6,8.6,7c0,0.1,0,0.2,0,0.3C8.5,7.4,8.3,7.5,8.2,7.6C7.6,7.8,7.1,8.1,6.5,8.3 C5.9,8.6,5.3,8.9,4.7,8.9c-0.4,0-0.8,0-1.2-0.1C2.7,8.8,1,8.7,1,8.7L1,6L1,4.7z" fill="#eee" transform="translate(-5 -5)"></path>
</g></g></g><g>
<animateTransform attributeName="transform" type="translate" values="0 0;200 200" keyTimes="0;1" repeatCount="indefinite" dur="1.25s" begin="-0.7553525542791917s"></animateTransform>
<g transform="translate(52.82763463585805 396.3510150558865)"><g transform="scale(0.41099339856707745)">
<path d="M1,4.7C1,4,1.2,3.4,1.4,2.8C1.6,2.5,1.7,2.1,2,1.9c0.3-0.2,0.6-0.4,0.9-0.5C4.3,0.9,5.8,1,7.3,1.3c0.6,0.2,1.3,0.5,1.6,1.1 C9.1,2.9,9,3.5,8.9,4C8.7,5,8.6,6,8.6,7c0,0.1,0,0.2,0,0.3C8.5,7.4,8.3,7.5,8.2,7.6C7.6,7.8,7.1,8.1,6.5,8.3 C5.9,8.6,5.3,8.9,4.7,8.9c-0.4,0-0.8,0-1.2-0.1C2.7,8.8,1,8.7,1,8.7L1,6L1,4.7z" fill="#eee" transform="translate(-5 -5)"></path>
</g></g></g><g>
<animateTransform attributeName="transform" type="translate" values="0 0;200 200" keyTimes="0;1" repeatCount="indefinite" dur="0.8333333333333334s" begin="-1.1634024024425762s"></animateTransform>
<g transform="translate(-22.396611288754173 -89.82879968672822)"><g transform="scale(0.25269633720625134)">
<path d="M1.8,8.9c0.6-1.3,1.2-2.6,1.8-4c0.4-0.8,0.8-1.7,1.3-2.4S6.2,1.2,7.1,1c0.4,0.8,1,1.5,1.1,2.4C8.3,4.1,8,4.9,7.6,5.6 S6.6,6.8,6,7.3C5.6,7.8,5.1,8.2,4.5,8.4C3.7,8.8,2.7,8.6,1.9,9L1.8,8.9z" fill="#eee" transform="translate(-5 -5)"></path>
</g></g></g><g>
<animateTransform attributeName="transform" type="translate" values="0 0;200 200" keyTimes="0;1" repeatCount="indefinite" dur="0.8333333333333334s" begin="-1.1634024024425762s"></animateTransform>
<g transform="translate(-22.396611288754173 110.17120031327178)"><g transform="scale(0.25269633720625134)">
<path d="M1.8,8.9c0.6-1.3,1.2-2.6,1.8-4c0.4-0.8,0.8-1.7,1.3-2.4S6.2,1.2,7.1,1c0.4,0.8,1,1.5,1.1,2.4C8.3,4.1,8,4.9,7.6,5.6 S6.6,6.8,6,7.3C5.6,7.8,5.1,8.2,4.5,8.4C3.7,8.8,2.7,8.6,1.9,9L1.8,8.9z" fill="#eee" transform="translate(-5 -5)"></path>
</g></g></g><g>
<animateTransform attributeName="transform" type="translate" values="0 0;200 200" keyTimes="0;1" repeatCount="indefinite" dur="0.8333333333333334s" begin="-1.1634024024425762s"></animateTransform>
<g transform="translate(-22.396611288754173 310.1712003132718)"><g transform="scale(0.25269633720625134)">
<path d="M1.8,8.9c0.6-1.3,1.2-2.6,1.8-4c0.4-0.8,0.8-1.7,1.3-2.4S6.2,1.2,7.1,1c0.4,0.8,1,1.5,1.1,2.4C8.3,4.1,8,4.9,7.6,5.6 S6.6,6.8,6,7.3C5.6,7.8,5.1,8.2,4.5,8.4C3.7,8.8,2.7,8.6,1.9,9L1.8,8.9z" fill="#eee" transform="translate(-5 -5)"></path>
</g></g></g><g>
<animateTransform attributeName="transform" type="translate" values="0 0;200 200" keyTimes="0;1" repeatCount="indefinite" dur="0.8333333333333334s" begin="-1.1634024024425762s"></animateTransform>
<g transform="translate(177.60338871124583 -89.82879968672822)"><g transform="scale(0.25269633720625134)">
<path d="M1.8,8.9c0.6-1.3,1.2-2.6,1.8-4c0.4-0.8,0.8-1.7,1.3-2.4S6.2,1.2,7.1,1c0.4,0.8,1,1.5,1.1,2.4C8.3,4.1,8,4.9,7.6,5.6 S6.6,6.8,6,7.3C5.6,7.8,5.1,8.2,4.5,8.4C3.7,8.8,2.7,8.6,1.9,9L1.8,8.9z" fill="#eee" transform="translate(-5 -5)"></path>
</g></g></g><g>
<animateTransform attributeName="transform" type="translate" values="0 0;200 200" keyTimes="0;1" repeatCount="indefinite" dur="0.8333333333333334s" begin="-1.1634024024425762s"></animateTransform>
<g transform="translate(177.60338871124583 110.17120031327178)"><g transform="scale(0.25269633720625134)">
<path d="M1.8,8.9c0.6-1.3,1.2-2.6,1.8-4c0.4-0.8,0.8-1.7,1.3-2.4S6.2,1.2,7.1,1c0.4,0.8,1,1.5,1.1,2.4C8.3,4.1,8,4.9,7.6,5.6 S6.6,6.8,6,7.3C5.6,7.8,5.1,8.2,4.5,8.4C3.7,8.8,2.7,8.6,1.9,9L1.8,8.9z" fill="#eee" transform="translate(-5 -5)"></path>
</g></g></g><g>
<animateTransform attributeName="transform" type="translate" values="0 0;200 200" keyTimes="0;1" repeatCount="indefinite" dur="0.8333333333333334s" begin="-1.1634024024425762s"></animateTransform>
<g transform="translate(177.60338871124583 310.1712003132718)"><g transform="scale(0.25269633720625134)">
<path d="M1.8,8.9c0.6-1.3,1.2-2.6,1.8-4c0.4-0.8,0.8-1.7,1.3-2.4S6.2,1.2,7.1,1c0.4,0.8,1,1.5,1.1,2.4C8.3,4.1,8,4.9,7.6,5.6 S6.6,6.8,6,7.3C5.6,7.8,5.1,8.2,4.5,8.4C3.7,8.8,2.7,8.6,1.9,9L1.8,8.9z" fill="#eee" transform="translate(-5 -5)"></path>
</g></g></g><g>
<animateTransform attributeName="transform" type="translate" values="0 0;200 200" keyTimes="0;1" repeatCount="indefinite" dur="1.25s" begin="-1.9922429121153487s"></animateTransform>
<g transform="translate(-49.40738235196821 -3.5502842849569163)"><g transform="scale(0.6490297626403256)">
<path d="M5.3,1.8C4.2,1.2,2.6,1.7,1.8,2.6s-1,2.4-0.7,3.7c0.1,0.4,0.3,0.8,0.5,1.1C2,7.8,2.4,8,2.9,8.2c2.1,0.7,4.6-0.1,5.9-2 C8.9,6,9,5.8,9,5.6C9,5.4,8.9,5.2,8.8,5c-0.3-0.6-0.5-1.2-1-1.7C7.2,2.6,6.3,2.1,5.3,1.8z" fill="#eee" transform="translate(-5 -5)"></path>
</g></g></g><g>
<animateTransform attributeName="transform" type="translate" values="0 0;200 200" keyTimes="0;1" repeatCount="indefinite" dur="1.25s" begin="-1.9922429121153487s"></animateTransform>
<g transform="translate(-49.40738235196821 196.44971571504308)"><g transform="scale(0.6490297626403256)">
<path d="M5.3,1.8C4.2,1.2,2.6,1.7,1.8,2.6s-1,2.4-0.7,3.7c0.1,0.4,0.3,0.8,0.5,1.1C2,7.8,2.4,8,2.9,8.2c2.1,0.7,4.6-0.1,5.9-2 C8.9,6,9,5.8,9,5.6C9,5.4,8.9,5.2,8.8,5c-0.3-0.6-0.5-1.2-1-1.7C7.2,2.6,6.3,2.1,5.3,1.8z" fill="#eee" transform="translate(-5 -5)"></path>
</g></g></g><g>
<animateTransform attributeName="transform" type="translate" values="0 0;200 200" keyTimes="0;1" repeatCount="indefinite" dur="1.25s" begin="-1.9922429121153487s"></animateTransform>
<g transform="translate(-49.40738235196821 396.4497157150431)"><g transform="scale(0.6490297626403256)">
<path d="M5.3,1.8C4.2,1.2,2.6,1.7,1.8,2.6s-1,2.4-0.7,3.7c0.1,0.4,0.3,0.8,0.5,1.1C2,7.8,2.4,8,2.9,8.2c2.1,0.7,4.6-0.1,5.9-2 C8.9,6,9,5.8,9,5.6C9,5.4,8.9,5.2,8.8,5c-0.3-0.6-0.5-1.2-1-1.7C7.2,2.6,6.3,2.1,5.3,1.8z" fill="#eee" transform="translate(-5 -5)"></path>
</g></g></g><g>
<animateTransform attributeName="transform" type="translate" values="0 0;200 200" keyTimes="0;1" repeatCount="indefinite" dur="1.25s" begin="-1.9922429121153487s"></animateTransform>
<g transform="translate(150.5926176480318 -3.5502842849569163)"><g transform="scale(0.6490297626403256)">
<path d="M5.3,1.8C4.2,1.2,2.6,1.7,1.8,2.6s-1,2.4-0.7,3.7c0.1,0.4,0.3,0.8,0.5,1.1C2,7.8,2.4,8,2.9,8.2c2.1,0.7,4.6-0.1,5.9-2 C8.9,6,9,5.8,9,5.6C9,5.4,8.9,5.2,8.8,5c-0.3-0.6-0.5-1.2-1-1.7C7.2,2.6,6.3,2.1,5.3,1.8z" fill="#eee" transform="translate(-5 -5)"></path>
</g></g></g><g>
<animateTransform attributeName="transform" type="translate" values="0 0;200 200" keyTimes="0;1" repeatCount="indefinite" dur="1.25s" begin="-1.9922429121153487s"></animateTransform>
<g transform="translate(150.5926176480318 196.44971571504308)"><g transform="scale(0.6490297626403256)">
<path d="M5.3,1.8C4.2,1.2,2.6,1.7,1.8,2.6s-1,2.4-0.7,3.7c0.1,0.4,0.3,0.8,0.5,1.1C2,7.8,2.4,8,2.9,8.2c2.1,0.7,4.6-0.1,5.9-2 C8.9,6,9,5.8,9,5.6C9,5.4,8.9,5.2,8.8,5c-0.3-0.6-0.5-1.2-1-1.7C7.2,2.6,6.3,2.1,5.3,1.8z" fill="#eee" transform="translate(-5 -5)"></path>
</g></g></g><g>
<animateTransform attributeName="transform" type="translate" values="0 0;200 200" keyTimes="0;1" repeatCount="indefinite" dur="1.25s" begin="-1.9922429121153487s"></animateTransform>
<g transform="translate(150.5926176480318 396.4497157150431)"><g transform="scale(0.6490297626403256)">
<path d="M5.3,1.8C4.2,1.2,2.6,1.7,1.8,2.6s-1,2.4-0.7,3.7c0.1,0.4,0.3,0.8,0.5,1.1C2,7.8,2.4,8,2.9,8.2c2.1,0.7,4.6-0.1,5.9-2 C8.9,6,9,5.8,9,5.6C9,5.4,8.9,5.2,8.8,5c-0.3-0.6-0.5-1.2-1-1.7C7.2,2.6,6.3,2.1,5.3,1.8z" fill="#eee" transform="translate(-5 -5)"></path>
</g></g></g><g>
<animateTransform attributeName="transform" type="translate" values="0 0;200 200" keyTimes="0;1" repeatCount="indefinite" dur="0.625s" begin="-2.059615975112063s"></animateTransform>
<g transform="translate(-62.69952131293684 -48.175953152892134)"><g transform="scale(0.17483779321927032)">
<path d="M1.8,8.9c0.6-1.3,1.2-2.6,1.8-4c0.4-0.8,0.8-1.7,1.3-2.4S6.2,1.2,7.1,1c0.4,0.8,1,1.5,1.1,2.4C8.3,4.1,8,4.9,7.6,5.6 S6.6,6.8,6,7.3C5.6,7.8,5.1,8.2,4.5,8.4C3.7,8.8,2.7,8.6,1.9,9L1.8,8.9z" fill="rgba(100%,100%,100%,0.389)" transform="translate(-5 -5)"></path>
</g></g></g><g>
<animateTransform attributeName="transform" type="translate" values="0 0;200 200" keyTimes="0;1" repeatCount="indefinite" dur="0.625s" begin="-2.059615975112063s"></animateTransform>
<g transform="translate(-62.69952131293684 151.82404684710787)"><g transform="scale(0.17483779321927032)">
<path d="M1.8,8.9c0.6-1.3,1.2-2.6,1.8-4c0.4-0.8,0.8-1.7,1.3-2.4S6.2,1.2,7.1,1c0.4,0.8,1,1.5,1.1,2.4C8.3,4.1,8,4.9,7.6,5.6 S6.6,6.8,6,7.3C5.6,7.8,5.1,8.2,4.5,8.4C3.7,8.8,2.7,8.6,1.9,9L1.8,8.9z" fill="rgba(100%,100%,100%,0.389)" transform="translate(-5 -5)"></path>
</g></g></g><g>
<animateTransform attributeName="transform" type="translate" values="0 0;200 200" keyTimes="0;1" repeatCount="indefinite" dur="0.625s" begin="-2.059615975112063s"></animateTransform>
<g transform="translate(-62.69952131293684 351.82404684710787)"><g transform="scale(0.17483779321927032)">
<path d="M1.8,8.9c0.6-1.3,1.2-2.6,1.8-4c0.4-0.8,0.8-1.7,1.3-2.4S6.2,1.2,7.1,1c0.4,0.8,1,1.5,1.1,2.4C8.3,4.1,8,4.9,7.6,5.6 S6.6,6.8,6,7.3C5.6,7.8,5.1,8.2,4.5,8.4C3.7,8.8,2.7,8.6,1.9,9L1.8,8.9z" fill="rgba(100%,100%,100%,0.389)" transform="translate(-5 -5)"></path>
</g></g></g><g>
<animateTransform attributeName="transform" type="translate" values="0 0;200 200" keyTimes="0;1" repeatCount="indefinite" dur="0.625s" begin="-2.059615975112063s"></animateTransform>
<g transform="translate(137.30047868706316 -48.175953152892134)"><g transform="scale(0.17483779321927032)">
<path d="M1.8,8.9c0.6-1.3,1.2-2.6,1.8-4c0.4-0.8,0.8-1.7,1.3-2.4S6.2,1.2,7.1,1c0.4,0.8,1,1.5,1.1,2.4C8.3,4.1,8,4.9,7.6,5.6 S6.6,6.8,6,7.3C5.6,7.8,5.1,8.2,4.5,8.4C3.7,8.8,2.7,8.6,1.9,9L1.8,8.9z" fill="rgba(100%,100%,100%,0.389)" transform="translate(-5 -5)"></path>
</g></g></g><g>
<animateTransform attributeName="transform" type="translate" values="0 0;200 200" keyTimes="0;1" repeatCount="indefinite" dur="0.625s" begin="-2.059615975112063s"></animateTransform>
<g transform="translate(137.30047868706316 151.82404684710787)"><g transform="scale(0.17483779321927032)">
<path d="M1.8,8.9c0.6-1.3,1.2-2.6,1.8-4c0.4-0.8,0.8-1.7,1.3-2.4S6.2,1.2,7.1,1c0.4,0.8,1,1.5,1.1,2.4C8.3,4.1,8,4.9,7.6,5.6 S6.6,6.8,6,7.3C5.6,7.8,5.1,8.2,4.5,8.4C3.7,8.8,2.7,8.6,1.9,9L1.8,8.9z" fill="rgba(100%,100%,100%,0.389)" transform="translate(-5 -5)"></path>
</g></g></g><g>
<animateTransform attributeName="transform" type="translate" values="0 0;200 200" keyTimes="0;1" repeatCount="indefinite" dur="0.625s" begin="-2.059615975112063s"></animateTransform>
<g transform="translate(137.30047868706316 351.82404684710787)"><g transform="scale(0.17483779321927032)">
<path d="M1.8,8.9c0.6-1.3,1.2-2.6,1.8-4c0.4-0.8,0.8-1.7,1.3-2.4S6.2,1.2,7.1,1c0.4,0.8,1,1.5,1.1,2.4C8.3,4.1,8,4.9,7.6,5.6 S6.6,6.8,6,7.3C5.6,7.8,5.1,8.2,4.5,8.4C3.7,8.8,2.7,8.6,1.9,9L1.8,8.9z" fill="rgba(100%,100%,100%,0.389)" transform="translate(-5 -5)"></path>
</g></g></g>
  </pattern>
</defs>
<rect x="0" y="0" width="100%" height="100%" fill="url(#ldp-d8d5a498f822c)"></rect></svg>